<?xml version="1.0" encoding="utf-8"?>
<!-- Generator: Adobe Illustrator 25.4.1, SVG Export Plug-In . SVG Version: 6.00 Build 0)  -->
<svg version="1.1" id="Calque_1" xmlns="http://www.w3.org/2000/svg" xmlns:xlink="http://www.w3.org/1999/xlink" x="0px" y="0px"
	 viewBox="0 0 100 100" style="enable-background:new 0 0 100 100;" xml:space="preserve">
<style type="text/css">
	.st0{fill:#02AF8E;}
</style>
<g>
	<g>
		<g>
			<g>
				<g>
					<g>
						<path class="st0" d="M32.8,14c-11.2,2.3-19.3,12.2-19.3,23.7c0,1.8,1.4,3.2,3.2,3.2c1.8,0,3.2-1.4,3.2-3.2
							c0-8.4,6-15.7,14.2-17.4c1.7-0.4,2.8-2,2.5-3.8S34.5,13.7,32.8,14z"/>
					</g>
				</g>
			</g>
		</g>
	</g>
	<g>
		<g>
			<g>
				<g>
					<g>
						<path class="st0" d="M78.3,66.9c-1.3-1.3-3.2-1.5-4.6-0.6l-5.9-5.9c11.1-14.7,10-35.9-3.4-49.3C57.2,3.9,47.7,0,37.6,0
							C27.6,0,18.1,3.9,11,11C-3.7,25.7-3.7,49.6,11,64.3c7.3,7.3,17,11,26.6,11c8,0,16-2.5,22.7-7.6l5.9,5.9
							c-0.8,1.5-0.6,3.4,0.6,4.6l19.4,19.4c3.1,3.1,8.2,3.1,11.4,0c3.1-3.1,3.1-8.2,0-11.4L78.3,66.9z M17,58.3
							C5.6,46.9,5.6,28.4,17,17c5.5-5.5,12.8-8.5,20.6-8.5c7.8,0,15.1,3,20.6,8.5c11.4,11.4,11.4,29.9,0,41.3
							c-5.7,5.7-13.2,8.5-20.6,8.5C30.2,66.8,22.7,64,17,58.3z"/>
					</g>
				</g>
			</g>
		</g>
	</g>
</g>
</svg>
