<?xml version="1.0" encoding="utf-8"?>
<!-- Generator: Adobe Illustrator 25.4.1, SVG Export Plug-In . SVG Version: 6.00 Build 0)  -->
<svg version="1.1" xmlns="http://www.w3.org/2000/svg" xmlns:xlink="http://www.w3.org/1999/xlink" x="0px" y="0px"
	 viewBox="0 0 400 400" style="enable-background:new 0 0 400 400;" xml:space="preserve">
<style type="text/css">
	.st0{display:none;}
	.st1{display:inline;}
	.st2{fill:#00CC99;}
	.st3{fill:none;stroke:#009369;stroke-width:10;stroke-miterlimit:10;}
	.st4{display:inline;fill:#FFFFFF;}
	.st5{fill:#FFFFFF;}
	.st6{display:inline;fill:#02AF8E;}
	.st7{fill:#03725D;}
</style>
<g id="Calque_1" class="st0">
	<g class="st1">
		<rect class="st2" width="400" height="400"/>
	</g>
	<g class="st1">
		<path class="st2" d="M-392.3,160.9c0,14.5-0.6,29-1.8,43.5c-1.2,14.5-3,28.9-5.8,43.2c-2.8,14.3-6.3,28.5-12,42
			c-2.9,6.7-6.2,13.4-10.8,19.4c-2.3,3-5,5.8-8.2,8c-3.2,2.2-7.2,3.8-11.4,3.9c-4.2,0.1-8.3-1.4-11.7-3.5c-3.4-2.1-6.2-4.9-8.7-7.8
			c-5-5.9-8.7-12.5-11.8-19.2c-3.1-6.8-5.7-13.7-8-20.8c-2.2-7-4.2-14.2-5.7-21.3c-6.4-28.7-9-58.1-9-87.4c0-29.3,2.6-58.7,9-87.4
			c1.6-7.2,3.5-14.3,5.7-21.3c2.2-7,4.8-14,8-20.8c1.6-3.4,3.3-6.7,5.2-9.9c1.9-3.2,4.1-6.4,6.6-9.3c2.5-2.9,5.3-5.7,8.8-7.8
			c3.4-2.1,7.5-3.6,11.7-3.5c4.2,0.1,8.2,1.7,11.4,3.9c3.3,2.2,5.9,5.1,8.2,8c4.6,6,7.9,12.6,10.8,19.4c5.6,13.6,9.2,27.8,12,42
			c2.8,14.3,4.6,28.7,5.8,43.2C-392.9,131.8-392.3,146.4-392.3,160.9z M-392.3,160.9c0-29-2.6-58.1-8.9-86.4
			c-1.5-7.1-3.5-14.1-5.6-20.9c-2.2-6.9-4.7-13.6-7.7-20.2c-3-6.5-6.6-12.7-11.1-18.1c-2.3-2.6-4.8-5-7.6-6.8
			c-2.8-1.7-5.9-2.8-9-2.7c-3.1,0.1-6,1.3-8.7,3.1c-2.7,1.8-5,4.3-7.1,7c-4.2,5.4-7.4,11.8-10.1,18.2c-5.4,13.1-8.9,27-11.7,41
			c-2.8,14-4.5,28.3-5.7,42.6c-1.2,14.3-1.8,28.7-1.7,43c0,7.2,0.1,14.4,0.4,21.5c0.3,7.2,0.7,14.3,1.3,21.5
			c1.2,14.3,2.9,28.6,5.7,42.6c2.7,14,6.2,28,11.7,41c2.7,6.5,5.9,12.8,10.1,18.2c2.1,2.7,4.4,5.2,7.1,7c2.7,1.8,5.6,3,8.7,3.1
			c3.1,0.1,6.2-0.9,9-2.7c2.8-1.7,5.3-4.1,7.6-6.8c4.5-5.3,8.1-11.6,11.1-18.1c3-6.5,5.5-13.3,7.7-20.2c2.2-6.9,4.1-13.9,5.6-20.9
			C-395,219-392.4,189.9-392.3,160.9z"/>
	</g>
	<g class="st1">
		<path class="st2" d="M-442.3,110.4c7.3-0.1,14.5,0,21.8,0.2c7.3,0.2,14.5,0.5,21.8,1c14.5,0.9,29,2.4,43.5,4.9
			c14.4,2.5,28.8,5.9,42.7,11.5c3.5,1.4,6.9,3,10.2,4.8c3.3,1.8,6.7,3.8,9.8,6.3c3.1,2.5,6.1,5.3,8.5,8.9c1.2,1.8,2.3,3.8,3,6
			c0.8,2.2,1.2,4.5,1.2,6.9c0,2.4-0.4,4.7-1.1,6.9c-0.7,2.2-1.7,4.2-2.9,6c-2.4,3.7-5.3,6.6-8.4,9.1c-3.1,2.5-6.4,4.7-9.7,6.6
			c-3.3,1.9-6.7,3.6-10.2,5.1c-13.8,6-28.2,9.9-42.7,12.8c-14.5,2.8-29.1,4.7-43.7,5.9c-14.6,1.2-29.3,1.7-43.9,1.5
			c-14.6-0.1-29.2-0.9-43.8-2.3c-14.6-1.5-29.1-3.6-43.4-6.7c-7.2-1.6-14.3-3.4-21.3-5.5c-7-2.2-14-4.7-20.7-7.7
			c-6.7-3.1-13.4-6.7-19.3-11.5c-2.9-2.4-5.7-5.2-7.9-8.6c-2.2-3.3-3.7-7.4-3.6-11.6c0-4.2,1.6-8.2,3.8-11.5c2.2-3.3,5-6,8-8.4
			c6-4.7,12.6-8.1,19.4-11c6.8-2.9,13.8-5.1,20.8-7.1c7-1.9,14.2-3.6,21.3-4.9c7.1-1.4,14.3-2.5,21.5-3.4c7.2-1,14.4-1.7,21.7-2.3
			c7.2-0.6,14.5-1.1,21.7-1.4C-456.9,110.6-449.6,110.4-442.3,110.4z M-442.3,111.4c-29-0.2-58.1,2.3-86.3,8.7
			c-14.1,3.2-28,7.4-41,13.4c-6.5,3-12.7,6.5-18.1,11c-2.6,2.2-5.1,4.7-6.8,7.5c-1.8,2.8-2.8,5.8-2.8,8.9c0,3.1,1.2,6.1,3,8.8
			c1.8,2.7,4.3,5.1,6.9,7.3c5.4,4.3,11.7,7.6,18.2,10.4c6.5,2.8,13.3,5.1,20.2,7.1c6.9,2,13.9,3.6,20.9,5
			c14.1,2.8,28.4,4.7,42.7,5.9c14.3,1.2,28.7,1.7,43.1,1.5c28.8-0.3,57.6-2.9,85.5-9.1c7-1.5,13.9-3.3,20.7-5.4
			c6.8-2,13.4-4.4,19.8-7.2c6.4-2.8,12.5-6.1,17.6-10.2c2.5-2,4.8-4.3,6.4-6.7c1.6-2.4,2.5-4.9,2.5-7.4c0.1-2.5-0.8-5.1-2.3-7.6
			c-1.6-2.5-3.8-4.8-6.3-7c-5.1-4.3-11.1-7.8-17.5-10.8c-6.3-3-13-5.6-19.8-7.9c-6.8-2.3-13.7-4.3-20.7-6
			C-384.3,114.8-413.4,111.6-442.3,111.4z"/>
	</g>
	<g class="st1">
		<path class="st2" d="M-407,125.5c10.3,10.2,20.1,20.9,29.5,32c9.4,11.1,18.3,22.5,26.4,34.6c8.1,12.1,15.6,24.6,21.2,38.2
			c2.7,6.8,5.1,13.8,6.1,21.3c0.4,3.7,0.6,7.6-0.2,11.5c-0.7,3.9-2.4,7.8-5.3,10.8c-2.9,3.1-6.8,4.9-10.7,5.8
			c-3.9,0.9-7.9,1-11.7,0.7c-7.7-0.7-14.9-2.7-21.9-5.2c-7-2.6-13.7-5.7-20.3-9c-6.6-3.4-13-7.1-19.1-11
			c-24.8-15.8-47.4-34.7-68.2-55.4c-20.7-20.7-39.6-43.3-55.4-68.2c-4-6.2-7.6-12.6-11-19.1c-3.4-6.6-6.5-13.3-9-20.3
			c-1.3-3.5-2.4-7.1-3.3-10.7c-0.9-3.7-1.6-7.4-1.9-11.2c-0.3-3.8-0.2-7.8,0.7-11.7c0.9-3.9,2.8-7.8,5.8-10.8c3-2.9,7-4.6,10.9-5.3
			c3.9-0.7,7.8-0.6,11.5-0.2c7.5,1,14.5,3.3,21.3,6.1c13.6,5.6,26.1,13.1,38.2,21.2C-461.5,77.7-450,86.6-439,96
			C-427.9,105.4-417.2,115.2-407,125.5z M-407,125.5c-20.5-20.5-42.9-39.2-67.4-54.8c-6.1-3.9-12.4-7.5-18.8-10.8
			c-6.4-3.3-13-6.3-19.7-8.8c-6.7-2.4-13.7-4.3-20.7-4.9c-3.5-0.3-6.9-0.2-10.2,0.6c-3.2,0.8-6.1,2.2-8.2,4.5
			c-2.1,2.2-3.4,5.2-4,8.3c-0.6,3.2-0.5,6.6-0.1,10c0.9,6.8,3.1,13.5,5.8,20c5.4,13.1,12.8,25.4,20.8,37.3
			c8,11.9,16.8,23.2,26.1,34.2c9.3,10.9,19,21.5,29.2,31.7c5.1,5.1,10.2,10.1,15.5,14.9c5.3,4.9,10.6,9.6,16.1,14.3
			c10.9,9.3,22.3,18.1,34.2,26.1c11.9,8,24.2,15.4,37.3,20.8c6.5,2.7,13.3,4.9,20,5.8c3.4,0.4,6.8,0.5,10-0.1c3.2-0.6,6.1-1.9,8.4-4
			c2.2-2.1,3.7-5,4.5-8.2c0.8-3.2,0.8-6.7,0.6-10.2c-0.6-7-2.5-13.9-4.9-20.7c-2.5-6.7-5.5-13.3-8.8-19.7
			c-3.3-6.4-6.9-12.7-10.8-18.8C-367.8,168.4-386.5,146-407,125.5z"/>
	</g>
	<g class="st1">
		<path class="st2" d="M-477.3,125.9c-20.6,20.4-39.4,42.7-54.8,67.2c-7.7,12.2-14.6,25-19.5,38.5c-2.4,6.7-4.4,13.6-5,20.5
			c-0.3,3.4-0.2,6.9,0.5,10.1c0.7,3.2,2.1,6.1,4.3,8.3c2.2,2.2,5.1,3.5,8.3,4.1c3.2,0.6,6.6,0.6,10,0.2c6.8-0.8,13.6-2.9,20.2-5.5
			c6.6-2.6,13-5.8,19.3-9.2c6.3-3.5,12.4-7.2,18.3-11.2c11.9-8,23.4-16.8,34.3-26.1c11-9.3,21.5-19.2,31.6-29.4
			c20.1-20.6,38.7-42.8,54.1-66.9c3.9-6,7.5-12.1,10.8-18.4c3.4-6.2,6.4-12.6,8.9-19.1c2.5-6.5,4.5-13.1,5.2-19.6
			c0.3-3.2,0.4-6.4-0.2-9.3c-0.6-2.9-1.7-5.3-3.5-7.1c-1.7-1.8-4.1-3-7-3.7c-2.9-0.7-6.1-0.7-9.4-0.5c-6.6,0.6-13.4,2.4-20,4.7
			c-6.6,2.4-13.2,5.2-19.5,8.4c-6.4,3.2-12.7,6.7-18.8,10.4C-433.9,87.3-456.7,105.6-477.3,125.9z M-478,125.2
			c5.1-5.2,10.3-10.3,15.6-15.3c5.3-5,10.6-9.9,16.1-14.7c10.9-9.6,22.3-18.8,34.2-27.3c12-8.4,24.5-16.2,38.3-22.1
			c3.5-1.4,7-2.7,10.7-3.8c3.7-1.1,7.4-2,11.4-2.4c3.9-0.4,8-0.5,12.3,0.3c2.1,0.4,4.3,1.1,6.3,2.1c2.1,1,4.1,2.3,5.8,4
			c1.7,1.7,3.1,3.6,4.1,5.7c1,2.1,1.7,4.2,2.2,6.3c0.9,4.3,0.9,8.4,0.5,12.4c-0.4,4-1.2,7.8-2.2,11.5c-1,3.7-2.2,7.3-3.6,10.8
			c-5.5,14.1-13,26.9-21.1,39.2c-8.2,12.2-17.2,23.9-26.7,35c-9.5,11.2-19.5,21.9-30,32.1c-10.4,10.2-21.3,20.1-32.6,29.3
			c-11.3,9.3-23.1,18-35.4,25.9c-6.2,4-12.5,7.7-19,11.2c-6.5,3.4-13.2,6.6-20.1,9.2c-6.9,2.6-14.2,4.7-21.8,5.5
			c-3.8,0.3-7.7,0.3-11.6-0.5c-3.9-0.8-7.8-2.6-10.8-5.7c-3-3-4.7-7-5.4-10.8c-0.8-3.9-0.7-7.8-0.3-11.5c0.9-7.5,3.2-14.6,6-21.4
			c2.8-6.8,6.1-13.4,9.7-19.7c3.6-6.4,7.5-12.5,11.6-18.5c4.1-6,8.4-11.9,12.8-17.7c4.4-5.8,9-11.4,13.7-17
			c4.7-5.6,9.5-11,14.4-16.4C-488.2,135.6-483.2,130.3-478,125.2z"/>
	</g>
	<g class="st1">
		<g>
			<g>
				<g>
					<g>
						<path class="st2" d="M-429.6,137.5c6.3,1.3,10.9,6.9,10.9,13.4c0,1-0.8,1.8-1.8,1.8c-1,0-1.8-0.8-1.8-1.8c0-4.8-3.4-8.9-8-9.9
							c-1-0.2-1.6-1.2-1.4-2.1C-431.5,137.9-430.6,137.3-429.6,137.5z"/>
					</g>
				</g>
			</g>
		</g>
		<g>
			<g>
				<g>
					<g>
						<path class="st2" d="M-466.3,178.4c-1.8,1.8-1.8,4.7,0,6.5c1.8,1.8,4.7,1.8,6.5,0l11-11c0.7-0.7,0.8-1.8,0.3-2.6l3.4-3.4
							c3.8,2.9,8.3,4.3,12.9,4.3c5.5,0,10.9-2.1,15.1-6.2c8.3-8.3,8.3-21.9,0-30.2c-4-4-9.4-6.3-15.1-6.3c-5.7,0-11.1,2.2-15.1,6.3
							c-7.6,7.6-8.3,19.6-1.9,28l-3.4,3.4c-0.8-0.5-1.9-0.4-2.6,0.3L-466.3,178.4z M-432.3,167.4c-4.2,0-8.5-1.6-11.7-4.8
							c-6.4-6.4-6.4-16.9,0-23.4c3.1-3.1,7.3-4.8,11.7-4.8c4.4,0,8.6,1.7,11.7,4.8c6.4,6.4,6.4,16.9,0,23.4
							C-423.9,165.8-428.1,167.4-432.3,167.4z"/>
					</g>
				</g>
			</g>
		</g>
	</g>
	<g class="st1">
		<path class="st3" d="M359.9,193c-0.8-2.2-1.8-4.2-3-6c-2.4-3.6-5.4-6.4-8.5-8.9c-3.1-2.5-6.4-4.5-9.8-6.3
			c-3.4-1.8-6.8-3.4-10.2-4.8c-8.9-3.6-18-6.3-27.1-8.4c5.1-8.5,9.7-17.4,13.3-26.8c1.4-3.5,2.6-7.1,3.6-10.8
			c1-3.7,1.8-7.5,2.2-11.5c0.4-4,0.4-8.1-0.5-12.4c-0.5-2.1-1.2-4.3-2.2-6.3c-1-2.1-2.4-4-4.1-5.7c-1.7-1.7-3.7-3-5.8-4
			c-2.1-1-4.2-1.7-6.3-2.1c-4.3-0.8-8.4-0.7-12.3-0.3c-3.9,0.5-7.7,1.4-11.4,2.4c-3.7,1.1-7.2,2.4-10.7,3.8
			c-10.2,4.3-19.7,9.7-28.8,15.6c-2.4-9.9-5.3-19.8-9.2-29.3c-2.9-6.8-6.2-13.4-10.8-19.4c-2.3-3-5-5.8-8.2-8
			c-3.2-2.2-7.2-3.8-11.4-3.9c-4.2-0.1-8.3,1.4-11.7,3.5c-3.4,2.1-6.2,4.9-8.8,7.8c-2.5,2.9-4.7,6.1-6.6,9.3
			c-1.9,3.2-3.7,6.5-5.2,9.9c-3.1,6.8-5.7,13.7-8,20.8c-1,3.2-2,6.5-2.9,9.8c-8.4-5.1-17.1-9.8-26.3-13.6
			c-6.8-2.8-13.8-5.1-21.3-6.1c-3.7-0.4-7.6-0.6-11.5,0.2c-3.9,0.7-7.8,2.4-10.9,5.3c-3.1,2.9-4.9,6.9-5.8,10.8
			c-0.9,3.9-1,7.9-0.7,11.7c0.3,3.8,1,7.6,1.9,11.2c0.9,3.7,2,7.2,3.3,10.7c2.6,7,5.7,13.7,9,20.3c1.5,2.9,3.1,5.8,4.7,8.6
			c-2.5,0.6-4.9,1.2-7.4,1.9c-7,2-14,4.2-20.8,7.1c-6.8,2.9-13.4,6.3-19.4,11c-2.9,2.4-5.7,5.1-8,8.4c-2.2,3.3-3.8,7.3-3.8,11.5
			c0,4.2,1.5,8.3,3.6,11.6c2.2,3.4,4.9,6.1,7.9,8.6c5.9,4.8,12.5,8.4,19.3,11.5c6.8,3.1,13.7,5.5,20.7,7.7c3.2,1,6.5,1.9,9.7,2.7
			c-1.5,2.4-3,4.9-4.4,7.4c-3.6,6.4-6.9,12.9-9.7,19.7c-2.7,6.8-5.1,13.9-6,21.4c-0.4,3.8-0.5,7.6,0.3,11.5
			c0.7,3.9,2.5,7.8,5.4,10.8c3,3,6.9,4.8,10.8,5.7c3.9,0.8,7.8,0.8,11.6,0.5c7.6-0.8,14.8-2.9,21.8-5.5c6.9-2.6,13.6-5.8,20.1-9.2
			c2.1-1.1,4.2-2.3,6.3-3.5c0.7,2.6,1.5,5.1,2.3,7.6c2.2,7,4.8,14,8,20.8c3.2,6.7,6.9,13.3,11.8,19.2c2.5,2.9,5.3,5.7,8.7,7.8
			c3.4,2.1,7.5,3.6,11.7,3.5c4.2-0.1,8.2-1.7,11.4-3.9c3.3-2.2,5.9-5.1,8.2-8c4.6-6,7.9-12.6,10.8-19.4c3.8-9.2,6.7-18.7,9-28.2
			c3,1.7,6,3.3,9,4.9c6.6,3.4,13.3,6.5,20.3,9c7,2.5,14.3,4.6,21.9,5.2c3.8,0.3,7.8,0.2,11.7-0.7c3.9-0.9,7.8-2.8,10.7-5.8
			c2.9-3,4.6-7,5.3-10.8c0.7-3.9,0.6-7.8,0.2-11.5c-1-7.5-3.3-14.5-6.1-21.3c-3.7-8.9-8.2-17.3-13.1-25.5
			c10.4-2.5,20.7-5.7,30.7-10.1c3.5-1.5,6.9-3.2,10.2-5.1c3.3-1.9,6.6-4,9.7-6.6c3.1-2.6,6-5.5,8.4-9.1c1.2-1.8,2.2-3.9,2.9-6
			c0.7-2.2,1.1-4.6,1.1-6.9C361.1,197.5,360.7,195.1,359.9,193z M250.6,101c6.4-3.2,12.9-6,19.5-8.4c6.6-2.4,13.4-4.1,20-4.7
			c3.3-0.3,6.5-0.2,9.4,0.5c2.9,0.7,5.3,1.9,7,3.7c1.7,1.8,2.9,4.2,3.5,7.1c0.6,2.8,0.6,6,0.2,9.3c-0.7,6.5-2.7,13.2-5.2,19.6
			c-2.5,6.5-5.5,12.9-8.9,19.1c-1.7,3.1-3.4,6.2-5.2,9.3c-1.7-0.3-3.4-0.6-5.1-0.9c-13.1-2.2-26.2-3.7-39.3-4.6
			c-1.2-12.6-2.8-25.2-5.3-37.7c-0.4-2.2-0.9-4.3-1.3-6.5C243.4,104.7,247,102.8,250.6,101z M238.7,291c-2-1.3-4-2.6-6-4
			c-9.5-6.4-18.6-13.3-27.4-20.5c5.1-4.2,10.1-8.5,15-12.9c7.4-0.2,14.9-0.7,22.3-1.3c1-0.1,2-0.2,3-0.3
			c-1.4,11.5-3.3,22.9-5.8,34.2C239.4,287.8,239.1,289.4,238.7,291z M239.8,113.5c2.7,12.3,4.8,24.8,6.2,37.3
			c-1.2-0.1-2.5-0.2-3.7-0.3c-7.3-0.5-14.5-0.8-21.8-1c-0.7,0-1.3,0-2-0.1c-5.4-5-10.8-9.8-16.4-14.5c-0.7-0.6-1.4-1.2-2.1-1.8
			c10.2-7.9,20.9-15.2,31.9-21.8c2.2-1.3,4.4-2.6,6.6-3.8C238.9,109.5,239.3,111.5,239.8,113.5z M218.3,149.5
			c-6.5-0.2-13.1-0.2-19.6-0.1c-6.3,0-12.6,0.2-18.8,0.4c6.4-5.7,13-11.1,19.7-16.3C206,138.6,212.2,144,218.3,149.5z M194.6,134.2
			c-5.5,4.8-10.8,9.7-16.1,14.7c-0.4,0.3-0.7,0.7-1,1c-0.2,0-0.4,0-0.6,0c-7,0.3-14,0.7-21,1.3c1.2-12.4,2.8-24.8,5.2-37
			c0.5-2.4,1-4.7,1.5-7c1.4,0.8,2.7,1.7,4.1,2.5c10.6,6.8,20.9,14.2,30.8,22C196.5,132.6,195.5,133.4,194.6,134.2z M176.5,150.8
			c-4.6,4.4-9.1,8.8-13.6,13.4c-2.9,2.9-5.8,5.9-8.6,8.9c0.3-5.4,0.6-10.8,1-16.2c0.1-1.5,0.3-3.1,0.4-4.6
			C162.7,151.6,169.6,151.1,176.5,150.8z M143.9,184.4c-3.4,3.7-6.7,7.5-9.9,11.3c-8-9.6-15.6-19.5-22.5-29.9
			c-1.3-1.9-2.5-3.8-3.7-5.7c1.5-0.4,3-0.7,4.5-1.1c11.1-2.5,22.4-4.4,33.7-5.8C145,163.6,144.3,174,143.9,184.4z M143.9,185.7
			c-0.1,4.7-0.2,9.4-0.2,14.1c0,2.4,0,4.8,0.1,7.2c-2-2.3-4.1-4.7-6.1-7c-1-1.2-2-2.4-3-3.5C137.7,192.8,140.8,189.3,143.9,185.7z
			 M144.2,222.4c0.3,7,0.9,14,1.5,21c-11.1-1.2-22.1-2.8-33-4.9c-2.3-0.5-4.7-1-7-1.5c1-1.6,2-3.3,3-4.9c6.1-9.6,12.7-19,19.7-28
			C133.6,210.4,138.8,216.5,144.2,222.4z M155.4,242.9c-0.3-3.1-0.5-6.2-0.7-9.3c1.7,1.7,3.4,3.5,5.1,5.2c2.1,2.1,4.3,4.2,6.5,6.3
			c-3.6-0.2-7.1-0.5-10.7-0.7c0,0,0,0,0,0C155.5,243.8,155.4,243.4,155.4,242.9z M161.1,285.5c-2.2-11.2-3.7-22.5-4.9-33.8
			c6.2,0.6,12.4,1.1,18.6,1.4c5.6,5.1,11.4,10.1,17.3,15c-8.6,7-17.6,13.7-26.8,19.8c-1.1,0.7-2.2,1.4-3.3,2.1
			C161.7,288.5,161.4,287,161.1,285.5z M198.5,260.9c-2.8-2.4-5.6-4.8-8.3-7.2c2.8,0.1,5.6,0.1,8.5,0.2c3.3,0,6.7,0,10,0
			c-3,2.7-6,5.3-9.1,8c0,0,0,0,0,0C199.2,261.5,198.9,261.2,198.5,260.9z M230.1,244.5c2.3-2.1,4.5-4.3,6.8-6.5
			c3.7-3.7,7.4-7.4,11-11.2c-0.3,5.4-0.7,10.8-1.3,16.1C241.1,243.6,235.6,244.1,230.1,244.5z M248,226.7
			c6.5-6.7,12.7-13.6,18.8-20.8c0.7-0.8,1.3-1.6,2-2.3c7.1,9.1,13.8,18.5,20,28.3c0.7,1.1,1.4,2.2,2.1,3.4c-2.2,0.5-4.5,1.1-6.7,1.6
			c-12.3,2.7-24.7,4.7-37.2,6.2C247.4,237.5,247.7,232.1,248,226.7z M248.5,213.8c0.1-4.6,0.2-9.3,0.2-13.9
			C248.7,204.5,248.6,209.2,248.5,213.8c-5.6,6.4-11.4,12.6-17.3,18.6c-4.3,4.4-8.7,8.7-13.2,12.9c-6.4,0.3-12.9,0.5-19.3,0.6
			c-5.8,0-11.5,0-17.3-0.2c-4.9-4.6-9.8-9.3-14.6-14c-4.4-4.4-8.7-8.8-12.9-13.3c-0.2-6.2-0.3-12.3-0.3-18.5c0-8.5,0.2-17,0.6-25.4
			c3.1-3.2,6.2-6.4,9.4-9.6c4.9-4.8,10-9.6,15.1-14.2c6.6-0.3,13.2-0.4,19.9-0.3c7.1,0.1,14.2,0.3,21.3,0.7c3,2.8,6,5.6,9,8.5
			c-2.9-2.9-5.9-5.7-8.9-8.5c8.7,0.5,17.5,1.3,26.1,2.5c0.9,8.5,1.6,17.1,1.9,25.7c-3-3.3-6.1-6.5-9.3-9.7c3.1,3.2,6.2,6.5,9.3,9.8
			c0.3,6.8,0.5,13.7,0.5,20.5c0-6.8-0.1-13.6-0.4-20.4c5.1,5.5,10,11.2,14.8,17C258.4,202.4,253.5,208.1,248.5,213.8z M263.3,196.2
			c-4.9-5.7-9.9-11.4-15-16.9c-0.3-7.7-0.7-15.3-1.4-22.9c-0.1-0.9-0.2-1.8-0.2-2.8c12.8,1.7,25.5,4,38,7.1c1,0.3,2.1,0.5,3.1,0.8
			c-0.8,1.3-1.7,2.7-2.5,4C278.5,176.1,271.1,186.3,263.3,196.2z M172.8,73.2c2.7-6.5,5.9-12.8,10.1-18.2c2.1-2.7,4.4-5.1,7.1-7
			c2.7-1.8,5.6-3,8.7-3.1c3.1-0.1,6.2,0.9,9,2.7c2.8,1.7,5.3,4.1,7.6,6.8c4.5,5.3,8.1,11.6,11.1,18.1c3,6.5,5.5,13.3,7.7,20.2
			c0.9,3,1.8,5.9,2.6,8.9c-2.7,1.8-5.3,3.6-7.9,5.4c-10.8,7.7-21.1,15.9-31.1,24.5c-9.8-8.1-19.8-15.8-30.4-22.9c-1.5-1-3-2-4.5-3
			C165.4,94.5,168.5,83.6,172.8,73.2z M90.8,128.6c-2.6-6.5-4.9-13.3-5.8-20c-0.4-3.4-0.5-6.8,0.1-10c0.6-3.2,1.8-6.1,4-8.3
			c2.1-2.2,5-3.7,8.2-4.5c3.2-0.8,6.7-0.8,10.2-0.6c7,0.6,13.9,2.5,20.7,4.9c6.7,2.5,13.3,5.5,19.7,8.8c2.4,1.2,4.8,2.5,7.2,3.9
			c-0.8,3.2-1.6,6.4-2.3,9.7c-2.9,13.1-5,26.4-6.5,39.7c-4.2,0.4-8.5,0.9-12.7,1.5c-7.2,0.9-14.4,2-21.5,3.4
			c-1.8,0.3-3.6,0.7-5.4,1.1C100.5,148.7,95,138.9,90.8,128.6z M91.9,233.4c-6.9-2-13.6-4.3-20.2-7.1c-6.5-2.8-12.8-6.1-18.2-10.4
			c-2.7-2.1-5.1-4.5-6.9-7.3c-1.8-2.7-2.9-5.7-3-8.8c-0.1-3.1,1-6.1,2.8-8.9c1.8-2.8,4.2-5.3,6.8-7.5c5.3-4.4,11.6-8,18.1-11
			c9-4.1,18.4-7.4,28-10.1c1.6,2.8,3.3,5.5,5,8.2c7.2,11.3,15.1,22.2,23.5,32.6c-2.7,3.3-5.4,6.6-7.9,10
			c-4.4,5.8-8.7,11.6-12.8,17.7c-1.2,1.8-2.5,3.6-3.6,5.5C99.6,235.5,95.7,234.5,91.9,233.4z M146.9,299.1
			c-6.3,3.5-12.7,6.6-19.3,9.2c-6.6,2.6-13.4,4.7-20.2,5.5c-3.4,0.4-6.8,0.4-10-0.2c-3.2-0.6-6.1-2-8.3-4.1
			c-2.2-2.1-3.6-5.1-4.3-8.3c-0.7-3.2-0.8-6.7-0.5-10.1c0.6-6.9,2.6-13.8,5-20.5c3.5-9.6,8.1-18.8,13.2-27.8c3,0.8,6,1.5,9,2.1
			c11.6,2.5,23.3,4.4,35.1,5.8c1.4,12.3,3.5,24.5,6.1,36.6c0.5,2.5,1.1,5,1.8,7.4C152,296.2,149.5,297.7,146.9,299.1z M234.1,307.2
			c-2.2,6.9-4.7,13.6-7.7,20.2c-3,6.5-6.6,12.7-11.1,18.1c-2.3,2.6-4.8,5-7.6,6.8c-2.8,1.7-5.9,2.8-9,2.7c-3.1-0.1-6.1-1.3-8.7-3.1
			c-2.7-1.8-5-4.3-7.1-7c-4.2-5.4-7.4-11.8-10.1-18.2c-4-9.6-6.9-19.7-9.3-29.9c1.8-1.1,3.6-2.2,5.3-3.4c10-6.4,19.6-13.4,28.9-20.7
			c9.7,7.7,19.8,14.9,30.2,21.6c2.8,1.8,5.6,3.5,8.5,5.2C235.7,302,235,304.6,234.1,307.2z M299.6,250.7c3.3,6.4,6.3,13,8.8,19.7
			c2.4,6.7,4.3,13.7,4.9,20.7c0.3,3.5,0.2,6.9-0.6,10.2c-0.8,3.2-2.2,6.1-4.5,8.2c-2.2,2.1-5.2,3.4-8.4,4c-3.2,0.6-6.6,0.5-10,0.1
			c-6.8-0.9-13.5-3.1-20-5.8c-10.4-4.3-20.3-9.8-29.9-15.9c0.4-1.8,0.7-3.5,1.1-5.3c2.2-11.4,3.8-22.9,5-34.5
			c13.4-1.2,26.8-2.9,40.1-5.6c3.3-0.7,6.7-1.4,10-2.2C297.4,246.4,298.5,248.5,299.6,250.7z M348.6,207.3c-1.6,2.4-3.9,4.7-6.4,6.7
			c-5.1,4.1-11.2,7.4-17.6,10.2c-6.4,2.8-13,5.2-19.8,7.2c-4.1,1.2-8.2,2.4-12.4,3.4c-0.8-1.3-1.6-2.5-2.5-3.7
			c-6.5-9.7-13.5-18.9-20.9-27.9c8.7-10.3,16.9-21,24.4-32.3c1.5-2.2,2.9-4.4,4.3-6.6c2.5,0.8,5,1.5,7.5,2.4
			c6.8,2.3,13.4,4.9,19.8,7.9c6.3,3,12.4,6.5,17.5,10.8c2.5,2.1,4.7,4.5,6.3,7c1.6,2.5,2.4,5.1,2.3,7.6
			C351.1,202.4,350.2,204.9,348.6,207.3z"/>
		<path class="st3" d="M229,159.6c1.7,1.6,3.4,3.3,5,4.9C232.4,162.9,230.7,161.2,229,159.6z"/>
		<path class="st3" d="M238.9,169.5c-1.6-1.7-3.3-3.3-4.9-5C235.7,166.2,237.3,167.8,238.9,169.5z"/>
		<path class="st3" d="M211.4,176.5c-1-0.2-1.9,0.4-2.1,1.4c-0.2,1,0.4,1.9,1.4,2.1c4.7,1,8,5.1,8,9.9c0,1,0.8,1.8,1.8,1.8
			c1,0,1.8-0.8,1.8-1.8C222.3,183.4,217.8,177.8,211.4,176.5z"/>
		<path class="st3" d="M208.7,168.5c-5.7,0-11.1,2.2-15.1,6.3c-7.6,7.6-8.3,19.6-1.9,28l-3.4,3.4c-0.8-0.5-1.9-0.4-2.6,0.3l-11,11
			c-1.8,1.8-1.8,4.7,0,6.5c1.8,1.8,4.7,1.8,6.5,0l11-11c0.7-0.7,0.8-1.8,0.3-2.6l3.4-3.4c3.8,2.9,8.3,4.3,12.9,4.3
			c5.5,0,10.9-2.1,15.1-6.2c8.3-8.3,8.3-21.9,0-30.2C219.7,170.7,214.4,168.5,208.7,168.5z M220.4,201.6c-3.2,3.2-7.5,4.8-11.7,4.8
			c-4.2,0-8.5-1.6-11.7-4.8c-6.4-6.4-6.4-16.9,0-23.4c3.1-3.1,7.3-4.8,11.7-4.8c4.4,0,8.6,1.7,11.7,4.8
			C226.8,184.6,226.8,195.1,220.4,201.6z"/>
	</g>
</g>
<g id="Calque_2">
	<g class="st0">
		<path class="st4" d="M248.7,199.9c0,14.5-0.6,29-1.8,43.5c-1.2,14.5-3,28.9-5.8,43.2c-2.8,14.3-6.3,28.5-12,42
			c-2.9,6.7-6.2,13.4-10.8,19.4c-2.3,3-5,5.8-8.2,8c-3.2,2.2-7.2,3.8-11.4,3.9c-4.2,0.1-8.3-1.4-11.7-3.5c-3.4-2.1-6.2-4.9-8.7-7.8
			c-5-5.9-8.7-12.5-11.8-19.2c-3.1-6.8-5.7-13.7-8-20.8c-2.2-7-4.2-14.2-5.7-21.3c-6.4-28.7-9-58.1-9-87.4c0-29.3,2.6-58.7,9-87.4
			c1.6-7.2,3.5-14.3,5.7-21.3c2.2-7,4.8-14,8-20.8c1.6-3.4,3.3-6.7,5.2-9.9c1.9-3.2,4.1-6.4,6.6-9.3c2.5-2.9,5.3-5.7,8.8-7.8
			c3.4-2.1,7.5-3.6,11.7-3.5c4.2,0.1,8.2,1.7,11.4,3.9c3.3,2.2,5.9,5.1,8.2,8c4.6,6,7.9,12.6,10.8,19.4c5.6,13.6,9.2,27.8,12,42
			c2.8,14.3,4.6,28.7,5.8,43.2C248.1,170.8,248.7,185.4,248.7,199.9z M248.7,199.9c0-29-2.6-58.1-8.9-86.4
			c-1.5-7.1-3.5-14.1-5.6-20.9c-2.2-6.9-4.7-13.6-7.7-20.2c-3-6.5-6.6-12.7-11.1-18.1c-2.3-2.6-4.8-5-7.6-6.8
			c-2.8-1.7-5.9-2.8-9-2.7c-3.1,0.1-6,1.3-8.7,3.1c-2.7,1.8-5,4.3-7.1,7c-4.2,5.4-7.4,11.8-10.1,18.2c-5.4,13.1-8.9,27-11.7,41
			c-2.8,14-4.5,28.3-5.7,42.6c-1.2,14.3-1.8,28.7-1.7,43c0,7.2,0.1,14.4,0.4,21.5c0.3,7.2,0.7,14.3,1.3,21.5
			c1.2,14.3,2.9,28.6,5.7,42.6c2.7,14,6.2,28,11.7,41c2.7,6.5,5.9,12.8,10.1,18.2c2.1,2.7,4.4,5.2,7.1,7c2.7,1.8,5.6,3,8.7,3.1
			c3.1,0.1,6.2-0.9,9-2.7c2.8-1.7,5.3-4.1,7.6-6.8c4.5-5.3,8.1-11.6,11.1-18.1c3-6.5,5.5-13.3,7.7-20.2c2.2-6.9,4.1-13.9,5.6-20.9
			C246,258,248.6,228.9,248.7,199.9z"/>
		<path class="st4" d="M198.7,149.4c7.3-0.1,14.5,0,21.8,0.2c7.3,0.2,14.5,0.5,21.8,1c14.5,0.9,29,2.4,43.5,4.9
			c14.4,2.5,28.8,5.9,42.7,11.5c3.5,1.4,6.9,3,10.2,4.8c3.3,1.8,6.7,3.8,9.8,6.3c3.1,2.5,6.1,5.3,8.5,8.9c1.2,1.8,2.3,3.8,3,6
			c0.8,2.2,1.2,4.5,1.2,6.9c0,2.4-0.4,4.7-1.1,6.9c-0.7,2.2-1.7,4.2-2.9,6c-2.4,3.7-5.3,6.6-8.4,9.1c-3.1,2.5-6.4,4.7-9.7,6.6
			c-3.3,1.9-6.7,3.6-10.2,5.1c-13.8,6-28.2,9.9-42.7,12.8c-14.5,2.8-29.1,4.7-43.7,5.9c-14.6,1.2-29.3,1.7-43.9,1.5
			c-14.6-0.1-29.2-0.9-43.8-2.3c-14.6-1.5-29.1-3.6-43.4-6.7c-7.2-1.6-14.3-3.4-21.3-5.5c-7-2.2-14-4.7-20.7-7.7
			c-6.7-3.1-13.4-6.7-19.3-11.5c-2.9-2.4-5.7-5.2-7.9-8.6c-2.2-3.3-3.7-7.4-3.6-11.6c0-4.2,1.6-8.2,3.8-11.5c2.2-3.3,5-6,8-8.4
			c6-4.7,12.6-8.1,19.4-11c6.8-2.9,13.8-5.1,20.8-7.1c7-1.9,14.2-3.6,21.3-4.9c7.1-1.4,14.3-2.5,21.5-3.4c7.2-1,14.4-1.7,21.7-2.3
			c7.2-0.6,14.5-1.1,21.7-1.4C184.1,149.6,191.4,149.4,198.7,149.4z M198.7,150.4c-29-0.2-58.1,2.3-86.3,8.7
			c-14.1,3.2-28,7.4-41,13.4c-6.5,3-12.7,6.5-18.1,11c-2.6,2.2-5.1,4.7-6.8,7.5c-1.8,2.8-2.8,5.8-2.8,8.9c0,3.1,1.2,6.1,3,8.8
			c1.8,2.7,4.3,5.1,6.9,7.3c5.4,4.3,11.7,7.6,18.2,10.4c6.5,2.8,13.3,5.1,20.2,7.1c6.9,2,13.9,3.6,20.9,5
			c14.1,2.8,28.4,4.7,42.7,5.9c14.3,1.2,28.7,1.7,43.1,1.5c28.8-0.3,57.6-2.9,85.5-9.1c7-1.5,13.9-3.3,20.7-5.4
			c6.8-2,13.4-4.4,19.8-7.2c6.4-2.8,12.5-6.1,17.6-10.2c2.5-2,4.8-4.3,6.4-6.7c1.6-2.4,2.5-4.9,2.5-7.4c0.1-2.5-0.8-5.1-2.3-7.6
			c-1.6-2.5-3.8-4.8-6.3-7c-5.1-4.3-11.1-7.8-17.5-10.8c-6.3-3-13-5.6-19.8-7.9c-6.8-2.3-13.7-4.3-20.7-6
			C256.7,153.8,227.6,150.6,198.7,150.4z"/>
		<path class="st4" d="M234,164.5c10.3,10.2,20.1,20.9,29.5,32c9.4,11.1,18.3,22.5,26.4,34.6c8.1,12.1,15.6,24.6,21.2,38.2
			c2.7,6.8,5.1,13.8,6.1,21.3c0.4,3.7,0.6,7.6-0.2,11.5c-0.7,3.9-2.4,7.8-5.3,10.8c-2.9,3.1-6.8,4.9-10.7,5.8
			c-3.9,0.9-7.9,1-11.7,0.7c-7.7-0.7-14.9-2.7-21.9-5.2c-7-2.6-13.7-5.7-20.3-9c-6.6-3.4-13-7.1-19.1-11
			c-24.8-15.8-47.4-34.7-68.2-55.4c-20.7-20.7-39.6-43.3-55.4-68.2c-4-6.2-7.6-12.6-11-19.1c-3.4-6.6-6.5-13.3-9-20.3
			c-1.3-3.5-2.4-7.1-3.3-10.7c-0.9-3.7-1.6-7.4-1.9-11.2c-0.3-3.8-0.2-7.8,0.7-11.7c0.9-3.9,2.8-7.8,5.8-10.8c3-2.9,7-4.6,10.9-5.3
			c3.9-0.7,7.8-0.6,11.5-0.2c7.5,1,14.5,3.3,21.3,6.1c13.6,5.6,26.1,13.1,38.2,21.2c12.1,8.1,23.5,17.1,34.6,26.4
			C213.1,144.4,223.8,154.2,234,164.5z M234,164.5c-20.5-20.5-42.9-39.2-67.4-54.8c-6.1-3.9-12.4-7.5-18.8-10.8
			c-6.4-3.3-13-6.3-19.7-8.8c-6.7-2.4-13.7-4.3-20.7-4.9c-3.5-0.3-6.9-0.2-10.2,0.6c-3.2,0.8-6.1,2.2-8.2,4.5
			c-2.1,2.2-3.4,5.2-4,8.3c-0.6,3.2-0.5,6.6-0.1,10c0.9,6.8,3.1,13.5,5.8,20c5.4,13.1,12.8,25.4,20.8,37.3
			c8,11.9,16.8,23.2,26.1,34.2c9.3,10.9,19,21.5,29.2,31.7c5.1,5.1,10.2,10.1,15.5,14.9c5.3,4.9,10.6,9.6,16.1,14.3
			c10.9,9.3,22.3,18.1,34.2,26.1c11.9,8,24.2,15.4,37.3,20.8c6.5,2.7,13.3,4.9,20,5.8c3.4,0.4,6.8,0.5,10-0.1c3.2-0.6,6.1-1.9,8.4-4
			c2.2-2.1,3.7-5,4.5-8.2c0.8-3.2,0.8-6.7,0.6-10.2c-0.6-7-2.5-13.9-4.9-20.7c-2.5-6.7-5.5-13.3-8.8-19.7
			c-3.3-6.4-6.9-12.7-10.8-18.8C273.2,207.4,254.5,185,234,164.5z"/>
		<path class="st4" d="M163.7,164.9c-20.6,20.4-39.4,42.7-54.8,67.2c-7.7,12.2-14.6,25-19.5,38.5c-2.4,6.7-4.4,13.6-5,20.5
			c-0.3,3.4-0.2,6.9,0.5,10.1c0.7,3.2,2.1,6.1,4.3,8.3c2.2,2.2,5.1,3.5,8.3,4.1c3.2,0.6,6.6,0.6,10,0.2c6.8-0.8,13.6-2.9,20.2-5.5
			c6.6-2.6,13-5.8,19.3-9.2c6.3-3.5,12.4-7.2,18.3-11.2c11.9-8,23.4-16.8,34.3-26.1c11-9.3,21.5-19.2,31.6-29.4
			c20.1-20.6,38.7-42.8,54.1-66.9c3.9-6,7.5-12.1,10.8-18.4c3.4-6.2,6.4-12.6,8.9-19.1c2.5-6.5,4.5-13.1,5.2-19.6
			c0.3-3.2,0.4-6.4-0.2-9.3c-0.6-2.9-1.7-5.3-3.5-7.1c-1.7-1.8-4.1-3-7-3.7c-2.9-0.7-6.1-0.7-9.4-0.5c-6.6,0.6-13.4,2.4-20,4.7
			c-6.6,2.4-13.2,5.2-19.5,8.4c-6.4,3.2-12.7,6.7-18.8,10.4C207.1,126.3,184.3,144.6,163.7,164.9z M163,164.2
			c5.1-5.2,10.3-10.3,15.6-15.3c5.3-5,10.6-9.9,16.1-14.7c10.9-9.6,22.3-18.8,34.2-27.3c12-8.4,24.5-16.2,38.3-22.1
			c3.5-1.4,7-2.7,10.7-3.8c3.7-1.1,7.4-2,11.4-2.4c3.9-0.4,8-0.5,12.3,0.3c2.1,0.4,4.3,1.1,6.3,2.1c2.1,1,4.1,2.3,5.8,4
			c1.7,1.7,3.1,3.6,4.1,5.7c1,2.1,1.7,4.2,2.2,6.3c0.9,4.3,0.9,8.4,0.5,12.4c-0.4,4-1.2,7.8-2.2,11.5c-1,3.7-2.2,7.3-3.6,10.8
			c-5.5,14.1-13,26.9-21.1,39.2c-8.2,12.2-17.2,23.9-26.7,35c-9.5,11.2-19.5,21.9-30,32.1c-10.4,10.2-21.3,20.1-32.6,29.3
			c-11.3,9.3-23.1,18-35.4,25.9c-6.2,4-12.5,7.7-19,11.2c-6.5,3.4-13.2,6.6-20.1,9.2c-6.9,2.6-14.2,4.7-21.8,5.5
			c-3.8,0.3-7.7,0.3-11.6-0.5c-3.9-0.8-7.8-2.6-10.8-5.7c-3-3-4.7-7-5.4-10.8c-0.8-3.9-0.7-7.8-0.3-11.5c0.9-7.5,3.2-14.6,6-21.4
			c2.8-6.8,6.1-13.4,9.7-19.7c3.6-6.4,7.5-12.5,11.6-18.5c4.1-6,8.4-11.9,12.8-17.7c4.4-5.8,9-11.4,13.7-17
			c4.7-5.6,9.5-11,14.4-16.4C152.8,174.6,157.8,169.3,163,164.2z"/>
		<g class="st1">
			<g>
				<g>
					<g>
						<g>
							<path class="st5" d="M211.4,176.5c6.3,1.3,10.9,6.9,10.9,13.4c0,1-0.8,1.8-1.8,1.8c-1,0-1.8-0.8-1.8-1.8c0-4.8-3.4-8.9-8-9.9
								c-1-0.2-1.6-1.2-1.4-2.1C209.5,176.9,210.4,176.3,211.4,176.5z"/>
						</g>
					</g>
				</g>
			</g>
			<g>
				<g>
					<g>
						<g>
							<path class="st5" d="M174.7,217.4c-1.8,1.8-1.8,4.7,0,6.5c1.8,1.8,4.7,1.8,6.5,0l11-11c0.7-0.7,0.8-1.8,0.3-2.6l3.4-3.4
								c3.8,2.9,8.3,4.3,12.9,4.3c5.5,0,10.9-2.1,15.1-6.2c8.3-8.3,8.3-21.9,0-30.2c-4-4-9.4-6.3-15.1-6.3c-5.7,0-11.1,2.2-15.1,6.3
								c-7.6,7.6-8.3,19.6-1.9,28l-3.4,3.4c-0.8-0.5-1.9-0.4-2.6,0.3L174.7,217.4z M208.7,206.4c-4.2,0-8.5-1.6-11.7-4.8
								c-6.4-6.4-6.4-16.9,0-23.4c3.1-3.1,7.3-4.8,11.7-4.8c4.4,0,8.6,1.7,11.7,4.8c6.4,6.4,6.4,16.9,0,23.4
								C217.1,204.8,212.9,206.4,208.7,206.4z"/>
						</g>
					</g>
				</g>
			</g>
		</g>
	</g>
	<g class="st0">
		<rect x="0.1" y="-0.4" class="st6" width="400" height="400"/>
	</g>
	<g>
		<path class="st7" d="M364.8,191c-0.8-2.4-2-4.8-3.6-7.1c-2.4-3.6-5.4-6.7-9.5-10c-3-2.4-6.3-4.5-10.5-6.8c-3.4-1.8-7-3.5-10.7-5.1
			c-6.6-2.7-13.7-5-21.3-7c4.2-7.5,7.6-14.7,10.4-21.8c1.5-3.8,2.7-7.6,3.7-11.3c1.2-4.4,2-8.5,2.3-12.4c0.5-5.3,0.3-9.7-0.6-13.9
			c-0.6-2.7-1.5-5.2-2.6-7.5c-1.3-2.6-3-5-5.1-7c-2-2-4.4-3.7-7.1-4.9c-2.3-1.1-4.8-1.9-7.6-2.5c-4.2-0.8-8.6-0.9-13.8-0.3
			c-3.8,0.4-7.7,1.3-12.2,2.6c-3.7,1.1-7.4,2.4-11.2,4c-7.7,3.3-15.5,7.3-23.7,12.3c-2.3-8.6-4.9-16.3-7.8-23.3
			c-3.7-8.7-7.2-15-11.5-20.5c-3.1-3.9-6-6.8-9.3-9c-3.1-2.1-8.1-4.7-14.2-4.8c-6.2-0.2-11.3,2.2-14.5,4.2c-3.5,2.2-6.6,5-9.9,8.8
			c-2.5,3-4.8,6.2-7.1,9.9c-2,3.3-3.8,6.8-5.5,10.4c-3,6.4-5.7,13.4-8.2,21.3c-0.4,1.2-0.8,2.4-1.1,3.7c-7.5-4.3-14.5-7.8-21.4-10.6
			c-8.7-3.5-15.7-5.5-22.6-6.4c-4.9-0.6-9.1-0.5-13,0.2c-3.7,0.7-9,2.4-13.4,6.6C77.7,87,75.8,92.3,75,96c-0.9,4-1.2,8.2-0.8,13.2
			c0.3,3.9,1,7.8,2,12c0.9,3.7,2.1,7.5,3.5,11.2c2.4,6.6,5.5,13.5,9.3,20.9c0.5,1,1.1,2,1.6,3.1c-0.4,0.1-0.8,0.2-1.2,0.3
			c-8,2.2-15,4.6-21.4,7.3c-8.7,3.7-15,7.3-20.5,11.7c-3.9,3.1-6.7,6.1-9,9.5c-2.1,3.1-4.6,8.1-4.7,14.2c-0.1,6.2,2.4,11.2,4.4,14.4
			c2.2,3.4,5,6.5,8.9,9.7c5.4,4.5,11.9,8.3,20.4,12.2c6.4,2.9,13.4,5.5,21.3,7.9c1.1,0.4,2.3,0.7,3.5,1c-0.4,0.6-0.7,1.3-1.1,1.9
			c-4.1,7.3-7.4,13.9-10,20.3c-3.5,8.7-5.4,15.8-6.3,22.8c-0.5,5-0.4,9.1,0.3,13c0.7,3.7,2.5,9,6.8,13.4c4.3,4.4,9.6,6.3,13.3,7.1
			c4,0.9,8.1,1,13.2,0.6c7-0.7,14.3-2.5,23-5.8c6.6-2.5,13.4-5.6,20.7-9.5c0.3-0.2,0.6-0.3,0.9-0.5c0.2,0.6,0.4,1.2,0.5,1.7
			c2.5,7.9,5.2,14.9,8.2,21.4c3.9,8.4,7.9,14.8,12.6,20.3c3.3,3.8,6.4,6.6,9.9,8.8c3.1,2,8,4.3,13.9,4.3c0.2,0,0.4,0,0.5,0
			c6.1-0.1,11.1-2.7,14.2-4.8c3.3-2.3,6.3-5.1,9.4-9.1c5.4-7,9-14.6,11.5-20.5c2.9-6.8,5.4-14.3,7.6-22.6c1.2,0.6,2.3,1.2,3.5,1.8
			c7.4,3.8,14.2,6.9,20.9,9.3c8.7,3.1,16.1,4.9,23.3,5.5c5,0.4,9.2,0.1,13.2-0.8c3.7-0.8,9-2.8,13.2-7.2c4.3-4.4,6-9.7,6.6-13.4
			c0.7-3.9,0.8-8.1,0.2-13c-1.1-8.8-4-16.7-6.4-22.6c-2.7-6.6-6-13.3-10.1-20.4c9.2-2.5,17.4-5.4,25.1-8.7c3.7-1.6,7.3-3.5,10.7-5.4
			c4-2.3,7.4-4.6,10.4-7.1c4.1-3.4,7-6.6,9.4-10.3c1.5-2.3,2.7-4.8,3.5-7.2c0.9-2.8,1.4-5.7,1.4-8.6
			C366.3,196.6,365.8,193.7,364.8,191z M241.8,157.7c0.3,2.6,0.5,5.2,0.7,7.8c-1-1-2-2-3-3c-0.6-0.6-1.2-1.2-1.8-1.8l0,0
			c0,0,0,0,0,0c0,0,0,0,0,0l0,0c-0.6-0.6-1.2-1.2-1.9-1.8c-0.7-0.7-1.3-1.3-2-1.9C236.5,157.1,239.2,157.4,241.8,157.7z
			 M234.5,115.3c0.2-0.1,0.5-0.3,0.7-0.4c2.1,9.7,3.9,19.8,5.2,30.2c-5.7-0.4-11.9-0.6-19.6-0.8c-0.1,0-0.1,0-0.2,0
			c-4.1-3.8-8.3-7.5-12.5-11.1C216.8,126.6,225.6,120.6,234.5,115.3z M177.5,74.8c3.1-7.3,6.1-12.8,9.4-17.1c2.1-2.6,4-4.6,6-6
			c2-1.4,4.1-2.2,6-2.2c1.9,0,4.1,0.6,6.2,1.9c2.1,1.3,4.2,3.2,6.4,5.7c3.7,4.4,7.1,9.9,10.4,16.9c2.7,5.8,5.2,12.2,7.5,19.6
			c0.5,1.7,1.1,3.5,1.6,5.3c-1.7,1.2-3.4,2.3-5,3.5c-9.2,6.5-18.5,13.8-28.2,22.1c-9.6-7.8-18.6-14.5-27.5-20.5
			c-0.5-0.4-1.1-0.7-1.6-1.1C171.3,92,174.1,83,177.5,74.8z M205,144c-2,0-4.1,0-6.2,0c-1.6,0-3.2,0-4.8,0c1.9-1.5,3.8-3.1,5.6-4.5
			C201.4,141,203.2,142.5,205,144z M166.1,114.9c7.9,5.1,15.8,10.7,23.6,16.7c-4.2,3.7-8.7,7.8-14.2,13c-5,0.2-9.6,0.5-13.9,0.8
			C162.8,134.3,164.3,124.3,166.1,114.9z M160.5,156.9c0-0.1,0-0.3,0-0.4c1-0.1,2-0.2,3-0.2c-1.1,1.1-2.2,2.2-3.2,3.3
			C160.4,158.6,160.5,157.7,160.5,156.9z M90.1,107.6c-0.4-3.3-0.4-6.1,0-8.5c0.4-2.4,1.4-4.4,2.7-5.8c1.3-1.4,3.3-2.4,5.7-3
			c2.4-0.6,5.2-0.7,8.6-0.5c5.7,0.5,12.1,2,19.4,4.6c6,2.2,12.3,5,19.1,8.5c1.2,0.6,2.4,1.2,3.7,1.9c-0.5,2.1-1,4.1-1.4,6.1
			c-2.6,11.6-4.6,23.8-6.1,36.2c-3.2,0.3-6.1,0.7-8.9,1.1c-8.2,1.1-15.3,2.2-21.8,3.5c-0.7,0.1-1.4,0.3-2.1,0.4
			c-5.8-9.4-10.1-17.7-13.5-25.8C92.6,119,90.8,113,90.1,107.6z M139.1,182c-1.7,1.9-3.3,3.7-4.9,5.5c-6.9-8.6-12.9-16.6-18.2-24.5
			c7.9-1.7,16.1-3.2,24.5-4.4C139.9,166.3,139.4,174.2,139.1,182z M140.4,237.4c-9.2-1.1-18.1-2.5-26.4-4.2
			c4.5-7.1,9.5-14.3,14.9-21.4c3.4,4.1,7,8.2,10.6,12.3C139.7,228.6,140,233,140.4,237.4z M73.9,221.4c-7.2-3.1-12.7-6.2-17.1-9.7
			c-2.6-2.1-4.6-4.1-5.9-6.1c-1.4-2-2.1-4.1-2.1-6.1c0-1.9,0.7-4.1,2-6.2c1.3-2.1,3.2-4.2,5.8-6.3c4.4-3.6,9.9-7,17-10.3
			c7.1-3.3,14.8-6.1,23.6-8.7c1.1,1.7,2.1,3.4,3.1,5c6.4,10,13.5,20.1,21.3,29.9c-2,2.5-3.8,4.8-5.5,7c-5,6.5-9.3,12.4-13,17.9
			c-0.6,0.8-1.2,1.7-1.8,2.6c-2.7-0.7-5.3-1.4-7.9-2.1C86.1,226.1,79.7,223.9,73.9,221.4z M144.6,294.3c-6.7,3.7-12.8,6.6-18.7,9
			c-7.3,2.9-13.4,4.5-18.9,5.2c-3.3,0.4-6.1,0.3-8.5-0.2c-2.4-0.5-4.4-1.4-5.8-2.8c-1.4-1.3-2.4-3.3-2.9-5.8
			c-0.5-2.4-0.7-5.2-0.4-8.6c0.5-5.7,2.1-12,4.7-19.3c2.8-7.6,6.4-15.4,11-23.8c1.9,0.4,3.7,0.9,5.4,1.2c10.1,2.2,20.5,4,31.6,5.4
			c1.5,11.4,3.4,22.6,5.7,33.2c0.3,1.3,0.6,2.6,0.9,4C147.4,292.8,146,293.6,144.6,294.3z M149.1,219.8l-0.1-5.7
			c0,1.4,0.1,2.7,0.1,4.1l0.1,1.8L149.1,219.8z M149.3,220.3l0-0.2l1.2,1.3c1.4,1.5,2.8,3,4.2,4.4L149.3,220.3z M162,256.8
			c3.6,0.3,7.2,0.6,10.9,0.8c3.8,3.4,7.6,6.8,11.4,10c-6.3,4.9-12.5,9.5-18.7,13.7C164.2,273.6,163,265.5,162,256.8z M175.4,246.4
			c0.5,0.5,1,0.9,1.5,1.4l0,0L175.4,246.4z M229.5,305.3c-2.3,7.3-4.8,13.7-7.5,19.5c-3.3,7-6.7,12.6-10.4,16.9
			c-2.2,2.6-4.3,4.5-6.5,5.8c-2.1,1.3-4.3,2-6.2,1.9c-1.9-0.1-4-0.8-6-2.2c-2-1.4-3.9-3.3-6-5.9c-3.4-4.4-6.4-9.8-9.4-17.1
			c-3.1-7.5-5.8-15.9-8.2-25.6c0.8-0.5,1.6-1,2.4-1.5c8.7-5.6,17.3-11.7,26.2-18.6c9.1,7,18.3,13.6,27.5,19.4
			c1.7,1.1,3.5,2.2,5.3,3.3C230.3,302.7,229.9,304.1,229.5,305.3z M235.5,282.5c-7.2-4.9-14.6-10.3-22.3-16.4
			c3.1-2.6,6.1-5.2,9.1-7.9c5.9-0.2,11.8-0.5,17.6-1C238.8,265.9,237.3,274.3,235.5,282.5z M243.6,211.5c-5.1,5.7-10.4,11.4-15.9,17
			c-3.7,3.7-7.5,7.5-11.7,11.5c-5.7,0.3-11.5,0.4-17.3,0.5c-5,0-10.1,0-15.2-0.1c-4.3-4-8.7-8.3-13-12.6c-3.7-3.7-7.5-7.6-11.5-11.9
			c-0.2-5.3-0.3-10.8-0.2-16.4c0-7.5,0.2-15.3,0.5-23.3c2.7-2.8,5.4-5.5,8-8.1c4.4-4.4,9-8.7,13.6-12.8c5.9-0.2,11.9-0.3,17.8-0.3
			c6.5,0.1,12.9,0.3,19.3,0.6c2.6,2.4,5.1,4.8,7.6,7.2l0,0l0.9,0.9c0.7,0.7,1.5,1.4,2.2,2.2c0.6,0.6,1.2,1.2,1.8,1.8
			c0.6,0.6,1.2,1.2,1.8,1.8c0.7,0.7,1.3,1.4,2,2.1l1,1.1c2.7,2.8,5.4,5.6,7.9,8.4c0.2,6.1,0.4,12.3,0.4,18.5
			C243.8,203.4,243.8,207.4,243.6,211.5z M323.1,178.7c6.7,3.2,12.1,6.5,16.4,10.1c2.4,2,4.1,4,5.3,5.8c1.1,1.7,1.6,3.4,1.6,4.9
			c0,1.4-0.6,3-1.7,4.7l0,0c-1.2,1.8-3,3.7-5.4,5.6c-4.3,3.4-9.7,6.5-16.5,9.5c-5.9,2.6-12.4,5-19.2,7c-2.8,0.9-5.7,1.7-8.7,2.5
			c-0.2-0.3-0.4-0.5-0.5-0.8c-5.5-8.1-11.5-16.4-18.5-25.1c8.3-10.1,15.6-19.8,22.1-29.5c0.7-1.1,1.5-2.3,2.3-3.5
			c1.3,0.4,2.6,0.8,3.7,1.2C310.7,173.3,317.1,175.9,323.1,178.7z M253.8,192.7c1,1.2,2,2.3,3,3.5c-1,1.2-1.9,2.4-2.9,3.6
			c0-0.1,0-0.1,0-0.2C253.8,197.2,253.8,195,253.8,192.7z M253.4,176.9c-0.2-6-0.6-12-1-17.9c9.5,1.4,18.7,3.2,27.7,5.3
			c-5.1,7.9-10.7,15.8-16.8,23.6C260,184.3,256.7,180.6,253.4,176.9z M253.1,228.5c5.6-5.9,10.8-11.6,15.7-17.2
			c5.1,6.8,9.9,13.6,14.3,20.4c-9.7,2.1-20,3.9-30.5,5.3C252.7,234.1,252.9,231.3,253.1,228.5z M293.1,162.3l0.4-0.7l0,0
			C293.4,161.8,293.2,162.1,293.1,162.3z M315.3,108.5c0.4-4.1,0.3-7.7-0.3-10.8c-0.8-3.9-2.4-7.1-4.7-9.5c1.2,1.2,2.3,2.7,3.1,4.3
			c0.8,1.5,1.4,3.3,1.8,5.1c0.7,3.2,0.8,6.7,0.4,10.9c-0.3,3.3-1,6.8-2,10.7c-0.9,3.4-2.1,6.9-3.4,10.3c-3.3,8.4-7.5,16.9-13,26.1
			l-1.6,2.8l-1.8,2.9c0,0,0,0,0,0.1l0.2-0.4l1.9-3l-0.1,0c1.7-3,3.4-5.9,5-8.9c3.6-6.7,6.7-13.3,9.1-19.7
			C312.8,121.7,314.6,114.8,315.3,108.5z M253,105.1L253,105.1c6.4-3.2,12.8-6,19-8.2c7-2.5,13.2-4,18.7-4.4
			c3.1-0.3,5.7-0.1,7.8,0.4c2,0.4,3.5,1.2,4.5,2.3c1,1,1.7,2.6,2.1,4.5c0.4,2.1,0.5,4.7,0.1,7.7c-0.6,5.4-2.2,11.4-4.9,18.4
			c-2.3,6-5.2,12.2-8.6,18.6c-1.1,2-2.2,4-3.3,6.1c-0.6-0.1-1.2-0.2-1.7-0.3c-11.1-1.9-22.8-3.3-35.6-4.4c-1.3-12.3-2.9-23.4-5-34
			c-0.2-1-0.4-1.9-0.6-2.9C248.1,107.6,250.6,106.3,253,105.1z M308.5,291.1c0.3,3.4,0.1,6.2-0.5,8.7c-0.6,2.4-1.6,4.4-3,5.8
			c-1.4,1.3-3.4,2.2-5.8,2.7c-2.4,0.4-5.1,0.4-8.4,0c-5.5-0.7-11.5-2.4-18.8-5.4c-8.1-3.4-16.7-7.9-26.2-13.7
			c0.1-0.6,0.3-1.3,0.4-1.9c1.9-9.6,3.4-19.7,4.6-30.8c13-1.3,25-3,36.5-5.2c2.2-0.4,4.3-0.9,6.5-1.4c0.6,1,1.1,2,1.6,2.9
			c3.5,6.8,6.3,13.1,8.5,19.1C306.5,279,308,285.3,308.5,291.1z M355.4,204.9c-0.5,1.6-1.3,3.3-2.4,4.9c-1.8,2.8-4.1,5.3-7.4,8
			c-2.6,2.1-5.5,4.1-9,6.1c-3,1.7-6.3,3.4-9.7,4.9c-8.9,3.9-18.7,7.1-29.9,9.8l-1.9,0.5c-1.3,0.3-2.6,0.6-3.9,0.9l1.3-0.3l6.3-1.5
			l0-0.1c2.6-0.7,5.1-1.4,7.6-2.2c7.3-2.2,14.1-4.7,20.4-7.5c7.6-3.4,13.7-6.9,18.7-10.9c3.2-2.6,5.7-5.2,7.4-7.8
			c2.2-3.3,3.3-6.6,3.4-9.9C356.3,201.4,356,203.2,355.4,204.9z"/>
		<path class="st7" d="M208.8,163.2c-7,0-13.7,2.7-18.6,7.7c-8,8-9.8,20.1-5.2,29.9c-1,0.3-2,0.9-2.8,1.7l-11,11
			c-3.7,3.7-3.7,9.8,0,13.5c1.9,1.9,4.3,2.8,6.8,2.8c2.4,0,4.9-0.9,6.8-2.8l11-11c0.8-0.8,1.4-1.8,1.7-2.8c3.5,1.7,7.4,2.5,11.3,2.5
			c7,0,13.7-2.7,18.6-7.7c10.3-10.3,10.3-27,0-37.3C222.5,165.9,215.9,163.2,208.8,163.2z M208.8,201c-3.1,0-6-1.2-8.2-3.4
			c-4.5-4.5-4.5-11.8,0-16.3c1.1-1.1,2.4-2,3.8-2.5c0.4,2.8,2.5,5.1,5.4,5.7c2.3,0.5,4,2.6,4,5c0,3,1.9,5.5,4.5,6.4
			c-0.4,0.6-0.9,1.2-1.4,1.8C214.8,199.8,211.9,201,208.8,201z"/>
	</g>
	<g>
		<path class="st5" d="M248.8,199.5c0,14.5-0.6,29-1.8,43.5c-1.2,14.5-3,28.9-5.8,43.2c-2.8,14.3-6.3,28.5-12,42
			c-2.9,6.7-6.2,13.4-10.8,19.4c-2.3,3-5,5.8-8.2,8c-3.2,2.2-7.2,3.8-11.4,3.9c-4.2,0.1-8.3-1.4-11.7-3.5c-3.4-2.1-6.2-4.9-8.7-7.8
			c-5-5.9-8.7-12.5-11.8-19.2c-3.1-6.8-5.7-13.7-8-20.8c-2.2-7-4.2-14.2-5.7-21.3c-6.4-28.7-9-58.1-9-87.4c0-29.3,2.6-58.7,9-87.4
			c1.6-7.2,3.5-14.3,5.7-21.3c2.2-7,4.8-14,8-20.8c1.6-3.4,3.3-6.7,5.2-9.9c1.9-3.2,4.1-6.4,6.6-9.3c2.5-2.9,5.3-5.7,8.8-7.8
			c3.4-2.1,7.5-3.6,11.7-3.5c4.2,0.1,8.2,1.7,11.4,3.9c3.3,2.2,5.9,5.1,8.2,8c4.6,6,7.9,12.6,10.8,19.4c5.6,13.6,9.2,27.8,12,42
			c2.8,14.3,4.6,28.7,5.8,43.2C248.3,170.5,248.8,185,248.8,199.5z M248.8,199.5c0-29-2.6-58.1-8.9-86.4c-1.5-7.1-3.5-14.1-5.6-20.9
			c-2.2-6.9-4.7-13.6-7.7-20.2c-3-6.5-6.6-12.7-11.1-18.1c-2.3-2.6-4.8-5-7.6-6.8c-2.8-1.7-5.9-2.8-9-2.7c-3.1,0.1-6,1.3-8.7,3.1
			c-2.7,1.8-5,4.3-7.1,7c-4.2,5.4-7.4,11.8-10.1,18.2c-5.4,13.1-8.9,27-11.7,41c-2.8,14-4.5,28.3-5.7,42.6
			c-1.2,14.3-1.8,28.7-1.7,43c0,7.2,0.1,14.4,0.4,21.5c0.3,7.2,0.7,14.3,1.3,21.5c1.2,14.3,2.9,28.6,5.7,42.6c2.7,14,6.2,28,11.7,41
			c2.7,6.5,5.9,12.8,10.1,18.2c2.1,2.7,4.4,5.2,7.1,7c2.7,1.8,5.6,3,8.7,3.1c3.1,0.1,6.2-0.9,9-2.7c2.8-1.7,5.3-4.1,7.6-6.8
			c4.5-5.3,8.1-11.6,11.1-18.1c3-6.5,5.5-13.3,7.7-20.2c2.2-6.9,4.1-13.9,5.6-20.9C246.2,257.6,248.8,228.5,248.8,199.5z"/>
		<path class="st5" d="M198.8,149c7.3-0.1,14.5,0,21.8,0.2c7.3,0.2,14.5,0.5,21.8,1c14.5,0.9,29,2.4,43.5,4.9
			c14.4,2.5,28.8,5.9,42.7,11.5c3.5,1.4,6.9,3,10.2,4.8c3.3,1.8,6.7,3.8,9.8,6.3c3.1,2.5,6.1,5.3,8.5,8.9c1.2,1.8,2.3,3.8,3,6
			c0.8,2.2,1.2,4.5,1.2,6.9c0,2.4-0.4,4.7-1.1,6.9c-0.7,2.2-1.7,4.2-2.9,6c-2.4,3.7-5.3,6.6-8.4,9.1c-3.1,2.5-6.4,4.7-9.7,6.6
			c-3.3,1.9-6.7,3.6-10.2,5.1c-13.8,6-28.2,9.9-42.7,12.8c-14.5,2.8-29.1,4.7-43.7,5.9c-14.6,1.2-29.3,1.7-43.9,1.5
			c-14.6-0.1-29.2-0.9-43.8-2.3c-14.6-1.5-29.1-3.6-43.4-6.7c-7.2-1.6-14.3-3.4-21.3-5.5c-7-2.2-14-4.7-20.7-7.7
			c-6.7-3.1-13.4-6.7-19.3-11.5c-2.9-2.4-5.7-5.2-7.9-8.6c-2.2-3.3-3.7-7.4-3.6-11.6c0-4.2,1.6-8.2,3.8-11.5c2.2-3.3,5-6,8-8.4
			c6-4.7,12.6-8.1,19.4-11c6.8-2.9,13.8-5.1,20.8-7.1c7-1.9,14.2-3.6,21.3-4.9c7.1-1.4,14.3-2.5,21.5-3.4c7.2-1,14.4-1.7,21.7-2.3
			c7.2-0.6,14.5-1.1,21.7-1.4C184.3,149.2,191.6,149,198.8,149z M198.8,150c-29-0.2-58.1,2.3-86.3,8.7c-14.1,3.2-28,7.4-41,13.4
			c-6.5,3-12.7,6.5-18.1,11c-2.6,2.2-5.1,4.7-6.8,7.5c-1.8,2.8-2.8,5.8-2.8,8.9c0,3.1,1.2,6.1,3,8.8c1.8,2.7,4.3,5.1,6.9,7.3
			c5.4,4.3,11.7,7.6,18.2,10.4c6.5,2.8,13.3,5.1,20.2,7.1c6.9,2,13.9,3.6,20.9,5c14.1,2.8,28.4,4.7,42.7,5.9
			c14.3,1.2,28.7,1.7,43.1,1.5c28.8-0.3,57.6-2.9,85.5-9.1c7-1.5,13.9-3.3,20.7-5.4c6.8-2,13.4-4.4,19.8-7.2
			c6.4-2.8,12.5-6.1,17.6-10.2c2.5-2,4.8-4.3,6.4-6.7c1.6-2.4,2.5-4.9,2.5-7.4c0.1-2.5-0.8-5.1-2.3-7.6c-1.6-2.5-3.8-4.8-6.3-7
			c-5.1-4.3-11.1-7.8-17.5-10.8c-6.3-3-13-5.6-19.8-7.9c-6.8-2.3-13.7-4.3-20.7-6C256.8,153.4,227.8,150.3,198.8,150z"/>
		<path class="st5" d="M234.2,164.1c10.3,10.2,20.1,20.9,29.5,32c9.4,11.1,18.3,22.5,26.4,34.6c8.1,12.1,15.6,24.6,21.2,38.2
			c2.7,6.8,5.1,13.8,6.1,21.3c0.4,3.7,0.6,7.6-0.2,11.5c-0.7,3.9-2.4,7.8-5.3,10.8c-2.9,3.1-6.8,4.9-10.7,5.8
			c-3.9,0.9-7.9,1-11.7,0.7c-7.7-0.7-14.9-2.7-21.9-5.2c-7-2.6-13.7-5.7-20.3-9c-6.6-3.4-13-7.1-19.1-11
			c-24.8-15.8-47.4-34.7-68.2-55.4c-20.7-20.7-39.6-43.3-55.4-68.2c-4-6.2-7.6-12.6-11-19.1c-3.4-6.6-6.5-13.3-9-20.3
			c-1.3-3.5-2.4-7.1-3.3-10.7c-0.9-3.7-1.6-7.4-1.9-11.2c-0.3-3.8-0.2-7.8,0.7-11.7c0.9-3.9,2.8-7.8,5.8-10.8c3-2.9,7-4.6,10.9-5.3
			c3.9-0.7,7.8-0.6,11.5-0.2c7.5,1,14.5,3.3,21.3,6.1c13.6,5.6,26.1,13.1,38.2,21.2c12.1,8.1,23.5,17.1,34.6,26.4
			C213.2,144,223.9,153.9,234.2,164.1z M234.2,164.1c-20.5-20.5-42.9-39.2-67.4-54.8c-6.1-3.9-12.4-7.5-18.8-10.8
			c-6.4-3.3-13-6.3-19.7-8.8c-6.7-2.4-13.7-4.3-20.7-4.9c-3.5-0.3-6.9-0.2-10.2,0.6c-3.2,0.8-6.1,2.2-8.2,4.5
			c-2.1,2.2-3.4,5.2-4,8.3c-0.6,3.2-0.5,6.6-0.1,10c0.9,6.8,3.1,13.5,5.8,20c5.4,13.1,12.8,25.4,20.8,37.3
			c8,11.9,16.8,23.2,26.1,34.2c9.3,10.9,19,21.5,29.2,31.7c5.1,5.1,10.2,10.1,15.5,14.9c5.3,4.9,10.6,9.6,16.1,14.3
			c10.9,9.3,22.3,18.1,34.2,26.1c11.9,8,24.2,15.4,37.3,20.8c6.5,2.7,13.3,4.9,20,5.8c3.4,0.4,6.8,0.5,10-0.1c3.2-0.6,6.1-1.9,8.4-4
			c2.2-2.1,3.7-5,4.5-8.2c0.8-3.2,0.8-6.7,0.6-10.2c-0.6-7-2.5-13.9-4.9-20.7c-2.5-6.7-5.5-13.3-8.8-19.7
			c-3.3-6.4-6.9-12.7-10.8-18.8C273.4,207.1,254.7,184.7,234.2,164.1z"/>
		<path class="st5" d="M163.8,164.5c-20.6,20.4-39.4,42.7-54.8,67.2c-7.7,12.2-14.6,25-19.5,38.5c-2.4,6.7-4.4,13.6-5,20.5
			c-0.3,3.4-0.2,6.9,0.5,10.1c0.7,3.2,2.1,6.1,4.3,8.3c2.2,2.2,5.1,3.5,8.3,4.1c3.2,0.6,6.6,0.6,10,0.2c6.8-0.8,13.6-2.9,20.2-5.5
			c6.6-2.6,13-5.8,19.3-9.2c6.3-3.5,12.4-7.2,18.3-11.2c11.9-8,23.4-16.8,34.3-26.1c11-9.3,21.5-19.2,31.6-29.4
			c20.1-20.6,38.7-42.8,54.1-66.9c3.9-6,7.5-12.1,10.8-18.4c3.4-6.2,6.4-12.6,8.9-19.1c2.5-6.5,4.5-13.1,5.2-19.6
			c0.3-3.2,0.4-6.4-0.2-9.3c-0.6-2.9-1.7-5.3-3.5-7.1c-1.7-1.8-4.1-3-7-3.7c-2.9-0.7-6.1-0.7-9.4-0.5c-6.6,0.6-13.4,2.4-20,4.7
			c-6.6,2.4-13.2,5.2-19.5,8.4c-6.4,3.2-12.7,6.7-18.8,10.4C207.2,125.9,184.5,144.2,163.8,164.5z M163.1,163.8
			c5.1-5.2,10.3-10.3,15.6-15.3c5.3-5,10.6-9.9,16.1-14.7c10.9-9.6,22.3-18.8,34.2-27.3c12-8.4,24.5-16.2,38.3-22.1
			c3.5-1.4,7-2.7,10.7-3.8c3.7-1.1,7.4-2,11.4-2.4c3.9-0.4,8-0.5,12.3,0.3c2.1,0.4,4.3,1.1,6.3,2.1c2.1,1,4.1,2.3,5.8,4
			c1.7,1.7,3.1,3.6,4.1,5.7c1,2.1,1.7,4.2,2.2,6.3c0.9,4.3,0.9,8.4,0.5,12.4c-0.4,4-1.2,7.8-2.2,11.5c-1,3.7-2.2,7.3-3.6,10.8
			c-5.5,14.1-13,26.9-21.1,39.2c-8.2,12.2-17.2,23.9-26.7,35c-9.5,11.2-19.5,21.9-30,32.1c-10.4,10.2-21.3,20.1-32.6,29.3
			c-11.3,9.3-23.1,18-35.4,25.9c-6.2,4-12.5,7.7-19,11.2c-6.5,3.4-13.2,6.6-20.1,9.2c-6.9,2.6-14.2,4.7-21.8,5.5
			c-3.8,0.3-7.7,0.3-11.6-0.5c-3.9-0.8-7.8-2.6-10.8-5.7c-3-3-4.7-7-5.4-10.8c-0.8-3.9-0.7-7.8-0.3-11.5c0.9-7.5,3.2-14.6,6-21.4
			c2.8-6.8,6.1-13.4,9.7-19.7c3.6-6.4,7.5-12.5,11.6-18.5c4.1-6,8.4-11.9,12.8-17.7c4.4-5.8,9-11.4,13.7-17
			c4.7-5.6,9.5-11,14.4-16.4C153,174.2,158,169,163.1,163.8z"/>
		<g>
			<g>
				<g>
					<g>
						<g>
							<path class="st5" d="M211.6,176.1c6.3,1.3,10.9,6.9,10.9,13.4c0,1-0.8,1.8-1.8,1.8c-1,0-1.8-0.8-1.8-1.8c0-4.8-3.4-8.9-8-9.9
								c-1-0.2-1.6-1.2-1.4-2.1C209.6,176.5,210.6,175.9,211.6,176.1z"/>
						</g>
					</g>
				</g>
			</g>
			<g>
				<g>
					<g>
						<g>
							<path class="st5" d="M174.8,217c-1.8,1.8-1.8,4.7,0,6.5c1.8,1.8,4.7,1.8,6.5,0l11-11c0.7-0.7,0.8-1.8,0.3-2.6l3.4-3.4
								c3.8,2.9,8.3,4.3,12.9,4.3c5.5,0,10.9-2.1,15.1-6.2c8.3-8.3,8.3-21.9,0-30.2c-4-4-9.4-6.3-15.1-6.3c-5.7,0-11.1,2.2-15.1,6.3
								c-7.6,7.6-8.3,19.6-1.9,28l-3.4,3.4c-0.8-0.5-1.9-0.4-2.6,0.3L174.8,217z M208.8,206c-4.2,0-8.5-1.6-11.7-4.8
								c-6.4-6.4-6.4-16.9,0-23.4c3.1-3.1,7.3-4.8,11.7-4.8c4.4,0,8.6,1.7,11.7,4.8c6.4,6.4,6.4,16.9,0,23.4
								C217.3,204.4,213,206,208.8,206z"/>
						</g>
					</g>
				</g>
			</g>
		</g>
	</g>
</g>
</svg>
